<svg width="31" height="31" viewBox="0 0 31 31" fill="none" xmlns="http://www.w3.org/2000/svg">
<g clip-path="url(#clip0_339_29)">
<path d="M11.2664 13.8089H8.76202V11.4397H11.0344C13.4279 11.4397 13.1322 13.8089 11.2664 13.8089ZM18.6443 15.1573H21.9885C21.842 13.0073 18.9808 12.8505 18.6443 15.1573ZM11.1249 15.662H8.76202V18.1434H11.0867C13.3578 18.1422 13.2189 15.662 11.1249 15.662ZM30.5874 15.2937C30.5874 23.7397 23.7397 30.5874 15.2937 30.5874C6.84776 30.5874 0 23.7397 0 15.2937C0 6.84776 6.84776 0 15.2937 0C23.7397 0 30.5874 6.84776 30.5874 15.2937V15.2937ZM13.5642 14.3595C15.6901 13.2724 15.6123 9.28583 11.5417 9.22593H6.37238V20.3521H11.1784C16.2228 20.3521 16.1374 15.2963 13.5642 14.3595ZM17.8427 10.3245H22.9406V9.20936H17.8427V10.3245ZM24.1424 15.0312C23.4478 10.5641 16.428 10.3016 16.428 16.1425C16.428 21.9108 23.0298 21.0085 24.0099 18.1307H21.6546C20.8326 19.084 18.4582 18.8074 18.5908 16.6217H24.2112C24.2227 15.9144 24.1997 15.4071 24.1424 15.0312V15.0312Z" fill="#E3D0CC"/>
</g>
<defs>
<clipPath id="clip0_339_29">
<rect width="30.5874" height="30.5874" fill="white"/>
</clipPath>
</defs>
</svg>
