<svg width="31" height="31" viewBox="0 0 31 31" fill="none" xmlns="http://www.w3.org/2000/svg">
<path d="M15.2937 0C6.84903 0 0 7.02087 0 15.6803C0 22.6084 4.38165 28.4859 10.4596 30.5597C11.223 30.7047 11.4703 30.2186 11.4703 29.8057V26.8866C7.21608 27.8352 6.33032 25.0363 6.33032 25.0363C5.63446 23.2239 4.63145 22.7417 4.63145 22.7417C3.24354 21.7682 4.73723 21.7891 4.73723 21.7891C6.27297 21.8989 7.08099 23.4055 7.08099 23.4055C8.44468 25.802 10.6584 25.1095 11.5315 24.7083C11.6678 23.6956 12.0642 23.0031 12.5026 22.6124C9.10613 22.2138 5.53505 20.8692 5.53505 14.8623C5.53505 13.1493 6.13278 11.7511 7.1103 10.6535C6.95227 10.2576 6.42846 8.66208 7.25941 6.50342C7.25941 6.50342 8.54409 6.08266 11.4665 8.11066C12.6861 7.76307 13.9937 7.58928 15.2937 7.58275C16.5937 7.58928 17.9026 7.76307 19.1248 8.11066C22.0446 6.08266 23.3267 6.50342 23.3267 6.50342C24.159 8.66339 23.6352 10.2589 23.4771 10.6535C24.4585 11.7511 25.0511 13.1506 25.0511 14.8623C25.0511 20.8849 21.4736 22.2112 18.0682 22.5993C18.6163 23.0854 19.1171 24.0393 19.1171 25.5028V29.8057C19.1171 30.2225 19.3618 30.7126 20.138 30.5584C26.2109 28.482 30.5874 22.6058 30.5874 15.6803C30.5874 7.02087 23.7397 0 15.2937 0Z" fill="#E3D0CC"/>
</svg>
