<svg width="31" height="31" viewBox="0 0 31 31" fill="none" xmlns="http://www.w3.org/2000/svg">
<g clip-path="url(#clip0_339_35)">
<path d="M24.215 0H6.37238C2.85355 0 0 2.85355 0 6.37238V24.215C0 27.7339 2.85355 30.5874 6.37238 30.5874H24.215C27.7351 30.5874 30.5874 27.7339 30.5874 24.215V6.37238C30.5874 2.85355 27.7351 0 24.215 0ZM10.1958 24.215H6.37238V10.1958H10.1958V24.215ZM8.28409 8.57977C7.05295 8.57977 6.05376 7.57294 6.05376 6.3316C6.05376 5.09026 7.05295 4.08342 8.28409 4.08342C9.51524 4.08342 10.5144 5.09026 10.5144 6.3316C10.5144 7.57294 9.51651 8.57977 8.28409 8.57977ZM25.4895 24.215H21.6661V17.0729C21.6661 12.7804 16.5682 13.1054 16.5682 17.0729V24.215H12.7448V10.1958H16.5682V12.4453C18.3474 9.14946 25.4895 8.90604 25.4895 15.6009V24.215Z" fill="#E3D0CC"/>
</g>
<defs>
<clipPath id="clip0_339_35">
<rect width="30.5874" height="30.5874" fill="white"/>
</clipPath>
</defs>
</svg>
