<svg width="31" height="31" viewBox="0 0 31 31" fill="none" xmlns="http://www.w3.org/2000/svg">
<g clip-path="url(#clip0_339_24)">
<path d="M0.0727539 30.5874L2.22279 22.7328C0.896065 20.4337 0.198927 17.8274 0.200201 15.1548C0.204025 6.79933 7.00335 0 15.3575 0C19.4116 0.00127448 23.2172 1.58035 26.0797 4.44537C28.9409 7.31039 30.5162 11.1185 30.5149 15.1688C30.5111 23.5255 23.7117 30.3249 15.3575 30.3249C12.8213 30.3236 10.3221 29.6876 8.10832 28.4794L0.0727539 30.5874ZM8.48047 25.7355C10.6165 27.0036 12.6557 27.7632 15.3524 27.7645C22.2958 27.7645 27.9519 22.1134 27.9557 15.1663C27.9583 8.20507 22.3289 2.5617 15.3626 2.55915C8.4142 2.55915 2.7619 8.21017 2.75935 15.1561C2.75807 17.9918 3.58903 20.115 4.98458 22.3365L3.71138 26.9857L8.48047 25.7355ZM22.9929 18.7718C22.8986 18.6137 22.6463 18.5194 22.2665 18.3295C21.888 18.1396 20.0259 17.2233 19.678 17.0971C19.3314 16.9709 19.079 16.9072 18.8254 17.287C18.573 17.6655 17.8466 18.5194 17.6261 18.7718C17.4056 19.0241 17.1839 19.056 16.8053 18.8661C16.4268 18.6762 15.2059 18.2773 13.7593 16.9862C12.634 15.9819 11.8731 14.7419 11.6526 14.3621C11.4322 13.9835 11.6297 13.7784 11.8183 13.5897C11.9891 13.4202 12.1968 13.1475 12.3867 12.9257C12.5792 12.7065 12.6416 12.5485 12.7691 12.2949C12.8953 12.0425 12.8328 11.8208 12.7372 11.6309C12.6416 11.4422 11.8846 9.57768 11.5698 8.81937C11.2614 8.08145 10.9491 8.18086 10.7172 8.16939L9.99072 8.15665C9.73838 8.15665 9.328 8.25096 8.98134 8.63075C8.63468 9.01054 7.65588 9.92562 7.65588 11.7902C7.65588 13.6547 9.0132 15.4556 9.20182 15.7079C9.39172 15.9603 11.8718 19.7862 15.6711 21.4265C16.5747 21.8165 17.2807 22.0497 17.83 22.2243C18.7375 22.5123 19.5633 22.4716 20.2158 22.3747C20.9436 22.2664 22.4564 21.4583 22.7724 20.5739C23.0885 19.6881 23.0885 18.9298 22.9929 18.7718Z" fill="#E3D0CC"/>
</g>
<defs>
<clipPath id="clip0_339_24">
<rect width="30.5874" height="30.5874" fill="white"/>
</clipPath>
</defs>
</svg>
